<?xml version="1.0" standalone="no"?>
<!DOCTYPE svg PUBLIC "-//W3C//DTD SVG 20010904//EN"
 "http://www.w3.org/TR/2001/REC-SVG-20010904/DTD/svg10.dtd">
<svg version="1.0" xmlns="http://www.w3.org/2000/svg"
 width="512.000000pt" height="512.000000pt" viewBox="0 0 512.000000 512.000000"
 preserveAspectRatio="xMidYMid meet">
<metadata>
Created by potrace 1.16, written by Peter Selinger 2001-2019
</metadata>
<g transform="translate(0.000000,512.000000) scale(0.100000,-0.100000)"
fill="#000000" stroke="none">
<path d="M0 2560 l0 -2560 2560 0 2560 0 0 2560 0 2560 -2560 0 -2560 0 0
-2560z m2510 2011 c-25 -2 1 -10 93 -27 105 -20 247 -62 402 -118 13 -5 11 -2
-5 8 -53 32 0 13 108 -39 76 -36 111 -59 106 -66 -4 -8 -3 -9 4 -5 16 10 54
-12 46 -26 -4 -7 -3 -8 4 -4 14 9 55 -12 47 -24 -3 -5 0 -12 6 -16 8 -5 9 -3
4 6 -5 8 -3 11 6 8 8 -3 14 -10 14 -15 0 -6 4 -15 9 -20 5 -5 6 -2 1 6 -5 9
-3 12 6 9 8 -3 14 -10 14 -15 0 -6 4 -15 9 -20 5 -5 6 -3 2 5 -11 18 9 15 25
-5 10 -11 10 -14 2 -9 -19 11 -16 1 4 -15 11 -10 14 -10 9 -1 -13 21 10 13 34
-13 l23 -25 -37 -55 c-20 -30 -38 -55 -41 -55 -3 0 11 25 32 55 35 54 36 56
18 73 -18 16 -18 16 -6 0 12 -16 8 -27 -30 -85 -24 -37 -44 -72 -44 -78 0 -12
-44 -85 -51 -85 -6 0 -1 10 28 55 l20 30 -26 -30 c-15 -16 -29 -40 -32 -52 -4
-13 -8 -23 -11 -23 -10 0 -118 82 -118 90 0 4 -4 12 -9 17 -5 5 -6 3 -2 -4 10
-18 3 -16 -38 8 -20 12 -33 26 -29 32 3 6 1 7 -5 3 -15 -9 -75 22 -67 34 4 6
-1 7 -11 3 -13 -5 -15 -3 -9 7 5 9 4 11 -3 6 -6 -4 -44 7 -84 25 -40 18 -109
44 -153 60 -44 15 -75 28 -69 28 9 1 50 -12 169 -54 16 -6 17 -5 5 4 -8 6 -57
25 -108 41 -258 84 -503 108 -759 75 -116 -15 -333 -67 -363 -86 -12 -9 -12
-9 3 -5 11 3 31 8 45 11 20 4 17 1 -8 -8 -19 -8 -46 -17 -60 -21 -20 -6 -22
-5 -10 4 21 16 -26 3 -60 -17 -24 -14 -21 -13 25 2 11 3 -31 -19 -94 -49 -62
-31 -118 -53 -124 -49 -5 3 -7 1 -4 -4 4 -6 -9 -20 -29 -32 -41 -24 -48 -26
-38 -8 4 7 3 9 -2 4 -5 -5 -9 -14 -9 -19 0 -6 -6 -13 -14 -16 -9 -3 -11 0 -6
9 5 8 4 11 -1 6 -5 -5 -9 -12 -9 -17 0 -4 -29 -29 -64 -55 -89 -66 -241 -214
-308 -302 -31 -40 -58 -73 -61 -73 -5 0 0 7 53 75 22 28 31 43 21 36 -29 -24
-108 -140 -102 -150 4 -5 1 -13 -5 -17 -8 -5 -10 -2 -5 7 4 8 0 5 -9 -6 -33
-41 -86 -145 -79 -156 4 -7 3 -9 -3 -6 -24 15 -123 -251 -165 -444 -19 -91
-22 -133 -22 -329 0 -196 3 -238 22 -329 42 -193 141 -459 165 -444 6 3 7 1 3
-6 -7 -11 46 -115 79 -156 9 -11 13 -14 9 -6 -5 9 -3 12 5 7 6 -4 9 -12 5 -17
-6 -10 73 -126 102 -150 10 -7 1 9 -21 36 -53 68 -58 75 -53 75 3 0 31 -34 63
-75 31 -41 105 -121 163 -177 59 -57 99 -97 90 -89 -26 19 -22 8 4 -15 12 -10
18 -13 14 -7 -12 22 10 14 30 -9 19 -22 19 -23 -1 -8 -18 14 -19 14 -6 -2 7
-10 17 -15 22 -12 11 7 60 -26 54 -36 -3 -5 0 -12 6 -16 8 -5 9 -3 4 6 -5 8
-3 11 6 8 8 -3 14 -10 14 -15 0 -6 4 -15 9 -20 5 -5 6 -3 2 5 -10 17 -3 15 38
-9 20 -12 33 -26 29 -32 -3 -6 -1 -7 5 -3 6 4 46 -11 89 -32 43 -22 99 -47
126 -57 26 -10 46 -20 43 -22 -2 -2 -21 3 -41 12 -21 8 -40 13 -42 11 -7 -7
149 -62 252 -89 317 -83 643 -73 966 29 85 27 222 84 216 90 -2 2 -39 -12 -83
-30 -74 -32 -159 -60 -109 -37 88 42 218 90 227 85 7 -5 8 -2 3 6 -6 10 -4 12
9 7 9 -4 15 -3 11 2 -3 5 25 27 62 48 85 47 88 49 78 32 -5 -8 -4 -11 1 -6 5
5 9 12 9 16 0 5 36 35 80 69 87 66 181 154 266 247 30 33 47 52 39 41 -9 -11
-10 -16 -3 -12 22 12 105 135 99 145 -4 5 -1 13 5 17 8 5 10 2 5 -7 -4 -8 2
-3 13 11 38 45 149 283 186 398 56 179 77 317 77 522 0 253 -33 424 -129 663
l-36 89 39 41 c22 22 31 35 22 28 -10 -7 -18 -9 -18 -4 0 16 96 104 105 96 4
-5 5 -3 2 3 -4 6 2 19 13 29 22 20 28 7 8 -14 -11 -11 -10 -12 0 -6 7 4 17 18
23 32 9 25 29 23 29 -3 0 -9 5 -12 12 -8 6 4 8 3 4 -4 -9 -14 35 -103 47 -95
6 3 7 1 3 -5 -4 -7 9 -51 28 -99 170 -430 188 -907 50 -1344 -20 -62 -47 -137
-60 -168 -14 -30 -22 -61 -19 -68 2 -8 1 -12 -3 -9 -12 7 -64 -103 -56 -116 4
-6 3 -8 -4 -5 -12 8 -76 -99 -67 -113 3 -5 0 -12 -6 -16 -8 -5 -9 -3 -4 6 6 9
4 11 -4 6 -7 -5 -10 -14 -7 -22 3 -7 0 -16 -6 -20 -7 -5 -8 -2 -3 6 6 9 4 11
-4 6 -7 -5 -10 -14 -7 -22 3 -7 0 -16 -6 -20 -7 -5 -8 -2 -3 6 6 9 4 11 -4 6
-7 -5 -10 -14 -7 -21 2 -7 -9 -28 -25 -46 l-30 -34 27 40 26 40 -30 -35 c-17
-19 -30 -40 -29 -47 1 -6 -31 -49 -70 -95 -91 -107 -271 -271 -238 -218 11 18
-1 11 -21 -12 -15 -19 -16 -20 -1 -9 9 7 17 11 17 8 0 -7 -116 -97 -125 -97
-3 0 -3 6 1 13 4 7 3 9 -2 4 -5 -5 -9 -14 -9 -20 0 -5 -6 -12 -14 -15 -9 -3
-11 0 -6 9 5 8 4 11 -1 6 -5 -5 -9 -14 -9 -20 0 -5 -6 -12 -14 -15 -9 -3 -11
0 -6 8 5 9 4 11 -4 6 -6 -4 -9 -11 -6 -16 7 -12 -83 -62 -97 -54 -7 4 -8 3 -4
-5 5 -7 -30 -30 -106 -66 -108 -52 -161 -71 -108 -39 28 17 32 19 -120 -37
-58 -21 -98 -39 -90 -39 10 -1 9 -4 -5 -10 -28 -12 -56 -11 -30 1 16 7 13 8
-10 3 -276 -56 -398 -68 -590 -61 -198 8 -403 44 -581 103 -16 5 -16 4 -4 -5
23 -17 6 -13 -62 13 -126 47 -240 105 -232 117 4 8 3 9 -4 5 -16 -10 -74 22
-66 36 4 7 3 8 -5 4 -11 -7 -164 85 -178 107 -3 6 -1 7 5 3 18 -11 14 0 -5 15
-11 10 -14 10 -9 1 11 -18 -9 -15 -25 5 -12 15 -12 16 1 8 13 -8 13 -7 1 8
-15 18 -26 23 -16 7 39 -63 -229 188 -317 297 -30 38 -67 86 -83 108 l-27 40
31 -35 c17 -19 3 9 -33 63 -449 681 -450 1561 0 2233 35 52 63 99 61 103 -6
24 335 381 365 381 5 0 6 -4 3 -10 -10 -16 1 -11 16 7 12 15 12 16 -1 8 -13
-8 -13 -7 -1 8 16 20 36 23 25 5 -5 -9 -2 -9 9 1 18 15 23 26 7 16 -5 -3 -10
-4 -10 -1 0 13 121 86 132 80 7 -4 8 -3 4 4 -8 14 30 36 46 26 7 -4 8 -3 4 4
-8 14 50 46 66 36 7 -4 8 -3 4 5 -8 12 106 70 232 117 68 26 85 30 62 13 -12
-9 -11 -10 5 -4 63 21 290 75 345 81 58 7 61 9 30 14 -19 3 107 6 280 5 173 0
299 -2 280 -4z m2399 -72 l-2 -77 -34 -16 c-19 -9 -39 -13 -45 -10 -7 5 -8 2
-3 -6 6 -10 4 -12 -9 -7 -10 4 -15 3 -11 -3 8 -12 -72 -53 -87 -44 -6 4 -8 3
-5 -3 8 -13 -129 -97 -142 -88 -5 3 -13 0 -17 -6 -4 -8 -3 -9 4 -5 7 4 12 5
12 3 0 -10 -112 -77 -120 -72 -5 3 -12 0 -16 -6 -4 -8 -3 -9 4 -5 7 4 12 5 12
3 0 -6 -98 -77 -106 -77 -3 0 -2 5 1 10 10 16 -1 11 -16 -7 -12 -15 -12 -16 1
-8 13 8 13 7 1 -8 -14 -18 -36 -24 -26 -7 10 16 -1 11 -16 -7 -12 -15 -12 -16
1 -8 13 8 13 7 1 -8 -14 -18 -36 -24 -26 -7 10 16 -1 11 -16 -7 -12 -15 -12
-16 1 -8 13 8 13 7 1 -8 -14 -18 -36 -24 -26 -7 11 18 -1 11 -21 -12 -15 -19
-16 -20 -1 -9 9 7 17 11 17 9 0 -3 -46 -43 -102 -90 -57 -47 -112 -95 -122
-107 -19 -21 -42 -30 -31 -11 13 22 -3 7 -60 -52 l-60 -63 60 55 c33 30 -14
-19 -104 -110 -90 -91 -211 -219 -269 -285 -57 -66 -114 -129 -126 -140 l-20
-20 20 25 c11 14 51 61 89 105 39 44 62 74 52 66 -24 -19 -177 -197 -177 -206
0 -3 6 -3 12 1 7 5 -5 -13 -26 -39 -48 -59 -59 -62 -16 -4 l32 42 -36 -40
c-19 -22 -35 -45 -33 -50 2 -11 -130 -195 -140 -195 -3 0 -1 6 4 13 57 74 127
174 103 147 -17 -19 -77 -100 -135 -180 -222 -311 -529 -830 -509 -862 5 -7 2
-8 -6 -3 -10 6 -12 4 -7 -9 5 -11 3 -15 -5 -10 -8 5 -9 2 -5 -10 5 -11 3 -15
-5 -10 -8 5 -9 2 -5 -10 5 -11 3 -15 -5 -10 -8 5 -9 2 -5 -10 5 -11 3 -15 -5
-10 -8 5 -9 2 -5 -10 4 -9 3 -15 -2 -12 -8 5 -70 -119 -151 -304 -60 -136 -63
-144 -62 -152 4 -16 -9 -7 -16 11 -8 21 -1169 1331 -1180 1331 -3 0 10 -17 30
-37 19 -21 270 -303 558 -628 288 -324 537 -605 553 -623 17 -17 28 -32 25
-32 -8 0 -1173 1311 -1174 1322 -1 4 -2 13 -3 19 0 5 -7 7 -14 3 -6 -4 -1 5
12 19 24 26 49 38 36 17 -10 -16 1 -11 16 7 12 15 12 16 -1 8 -13 -8 -13 -7
-1 8 16 20 36 23 25 5 -4 -8 -3 -10 2 -5 5 5 9 14 9 19 0 6 6 13 14 16 9 3 11
0 5 -9 -7 -12 -5 -12 9 0 18 15 23 26 7 16 -5 -3 -10 -4 -10 -2 0 11 201 148
209 142 5 -3 13 0 17 6 5 8 2 10 -7 5 -8 -4 0 4 16 18 17 14 35 24 42 21 7 -2
15 1 19 7 5 7 2 8 -7 4 -8 -4 0 4 16 18 32 27 55 34 55 15 0 -11 336 -399 346
-399 5 0 -242 285 -310 358 -16 17 -27 32 -24 32 6 0 594 -666 657 -745 l25
-30 -32 29 c-43 39 -41 29 2 -13 l33 -32 22 35 c13 20 20 40 17 45 -4 5 -1 13
5 17 8 5 9 3 4 -6 -6 -9 -4 -11 4 -6 7 5 10 14 7 22 -3 7 0 16 6 20 7 5 8 2 3
-6 -6 -9 -4 -11 4 -6 7 5 10 14 7 22 -3 7 0 16 6 20 7 5 8 2 3 -6 -6 -9 -4
-11 4 -6 7 5 10 14 7 22 -3 7 0 16 6 20 7 5 8 2 3 -6 -6 -9 -4 -11 4 -6 7 5
10 14 7 22 -3 7 0 16 6 20 7 5 8 2 3 -6 -5 -9 -4 -11 4 -6 7 4 10 13 8 19 -4
11 48 97 59 97 3 0 -9 -21 -26 -47 -38 -60 -13 -28 118 149 56 77 100 143 98
147 -3 5 4 17 17 27 l22 19 -20 -25 -20 -25 23 19 c12 11 21 25 18 32 -3 7 5
20 17 31 l22 18 -20 -25 -20 -25 23 19 c12 11 21 25 20 32 -6 29 431 511 445
491 6 -8 7 -7 4 4 -6 17 121 140 324 317 98 85 130 108 114 82 -11 -18 1 -11
21 12 19 22 19 23 -1 8 -20 -15 -20 -14 -1 8 19 22 43 31 31 12 -11 -18 1 -11
21 12 19 22 19 23 -1 8 -20 -15 -20 -14 -1 8 19 22 43 31 31 12 -10 -16 1 -11
16 7 12 15 12 16 -1 8 -13 -8 -13 -7 -1 8 14 18 36 24 26 7 -10 -16 1 -11 16
7 12 15 12 16 -1 8 -13 -8 -13 -7 -1 8 14 18 36 24 26 7 -10 -16 1 -11 16 7
12 15 12 16 -1 8 -13 -8 -13 -7 -1 8 15 19 36 23 25 5 -4 -7 -3 -8 5 -4 6 4 9
11 6 16 -6 10 43 43 55 35 5 -3 12 0 16 6 5 8 3 9 -7 4 -12 -8 -12 -6 0 8 16
20 36 23 25 5 -4 -8 -3 -10 2 -5 5 5 9 14 9 19 0 6 6 13 14 16 9 3 11 0 6 -9
-5 -8 -4 -11 1 -6 5 5 9 14 9 19 0 6 6 13 14 16 9 3 11 0 6 -8 -5 -9 -4 -11 4
-6 6 4 9 11 6 15 -7 12 113 83 127 75 7 -4 8 -3 4 4 -8 14 30 36 46 26 7 -4 8
-3 4 4 -8 14 70 56 86 46 7 -4 8 -3 4 4 -4 7 37 33 113 72 67 33 124 60 128
59 5 0 -40 -25 -99 -55 -60 -30 -108 -56 -108 -59 0 -3 46 18 103 46 56 29
166 78 245 109 79 32 138 60 131 62 -7 2 5 4 25 4 l37 0 -2 -77z"/>
</g>
</svg>
